<svg viewBox="0 0 16 16" fill="none" xmlns="http://www.w3.org/2000/svg"><path fill-rule="evenodd" clip-rule="evenodd" d="M14.62 7.05c-.1.65-.32 1.28-.66 1.85a2.68 2.68 0 0 1-.38 1.85c-.13.22-.16.48-.18.64V12l.08.7a14 14 0 0 0-1.47-.33 1.7 1.7 0 0 0-.68.04 5.42 5.42 0 0 1-3.58-.09 9.1 9.1 0 0 1-2.72-.29A6.16 6.16 0 0 0 9.67 14c.72 0 1.41-.11 2.05-.31h.15l.5.1c.4.08.85.21 1.2.32.72.24 1.44-.4 1.3-1.15a10.53 10.53 0 0 1-.14-1.46l.01-.08a4 4 0 0 0-.12-4.37Z" fill="#9A9CA5"/><path fill-rule="evenodd" clip-rule="evenodd" d="M3.73 3.8c-.9.69-1.4 1.59-1.4 2.53 0 .48.13.93.36 1.35.08.16.1.33.12.44v.37a15.5 15.5 0 0 1-.39 1.7c.35-.12.73-.25 1.1-.36.29-.09.59-.16.85-.2.23-.04.56-.07.85.02a6.48 6.48 0 0 0 5.72-.78c.9-.69 1.4-1.6 1.4-2.54s-.5-1.84-1.4-2.53a5.96 5.96 0 0 0-3.6-1.13c-1.44 0-2.71.44-3.6 1.13Zm-.8-1.06a7.29 7.29 0 0 1 4.4-1.4c1.7 0 3.26.52 4.41 1.4a4.55 4.55 0 0 1 1.93 3.6c0 1.44-.77 2.7-1.93 3.59a7.82 7.82 0 0 1-6.94 1s-.06-.01-.22.01a5.9 5.9 0 0 0-.7.17c-.53.16-1.13.38-1.6.56-.79.3-1.6-.46-1.33-1.27.14-.43.31-.98.42-1.45a4.57 4.57 0 0 0 .1-.7A4.12 4.12 0 0 1 1 6.33c0-1.44.77-2.7 1.92-3.59Z" fill="#9A9CA5"/></svg>