<svg viewBox="0 0 16 16" fill="none" xmlns="http://www.w3.org/2000/svg"><g clip-path="url(#a)" fill-rule="evenodd" clip-rule="evenodd" fill="#9A9CA5"><path d="M7.7.74c.19-.1.41-.1.6 0l6.66 3.33a.67.67 0 0 1 0 1.2L8.3 8.6c-.19.09-.41.09-.6 0L1.04 5.26a.67.67 0 0 1 0-1.19L7.7.74ZM2.82 4.67 8 7.25l5.18-2.58L8 2.07l-5.18 2.6Z"/><path d="M.74 7.7a.67.67 0 0 1 .9-.3L8 10.6l6.37-3.19a.67.67 0 1 1 .6 1.2L8.3 11.93c-.19.1-.41.1-.6 0L1.04 8.6a.67.67 0 0 1-.3-.9Z"/><path d="M.74 11.03a.67.67 0 0 1 .9-.3L8 13.94l6.37-3.2a.67.67 0 1 1 .6 1.2L8.3 15.26c-.19.1-.41.1-.6 0l-6.66-3.33a.67.67 0 0 1-.3-.9Z"/></g><defs><clipPath id="a"><path fill="#fff" d="M0 0h16v16H0z"/></clipPath></defs></svg>