<svg viewBox="0 0 16 16" fill="none" xmlns="http://www.w3.org/2000/svg"><g clip-path="url(#a)"><path fill-rule="evenodd" clip-rule="evenodd" d="M9.45 2.17c-.09 0-.17.05-.22.13L6.16 7.26v6.57h5.72c.12 0 .23-.08.26-.2v-.01l1.7-6.64a.26.26 0 0 0-.26-.31H11a1.7 1.7 0 0 1-1.2-.46 1.4 1.4 0 0 1-.39-1.3l.48-2.43a.26.26 0 0 0-.25-.31h-.19ZM4.83 13.83v-6.1H2.47a.26.26 0 0 0-.26.27l-.04 5.57c0 .15.11.26.26.26h2.4Zm.3-7.42 2.95-4.8c.29-.48.81-.78 1.37-.78h.19c1 0 1.76.92 1.56 1.9l-.48 2.43v.07l.02.03c.03.02.1.07.26.07h2.6a1.6 1.6 0 0 1 1.55 1.95l-1.7 6.65a1.6 1.6 0 0 1-1.56 1.24H2.43a1.6 1.6 0 0 1-1.6-1.61l.05-5.57c0-.88.71-1.58 1.6-1.58h2.65Z" fill="#9A9CA5"/></g><defs><clipPath id="a"><path fill="#fff" d="M0 0h16v16H0z"/></clipPath></defs></svg>