<svg viewBox="0 0 16 16" fill="none" xmlns="http://www.w3.org/2000/svg"><path fill-rule="evenodd" clip-rule="evenodd" d="M6.78 1.47a1.33 1.33 0 0 1 2.44 0l1.4 3.23 3.5.33a1.33 1.33 0 0 1 .76 2.32l-2.64 2.33.77 3.44a1.33 1.33 0 0 1-1.98 1.44L8 12.76l-3.03 1.8c-1 .59-2.23-.3-1.98-1.44l.77-3.44-2.64-2.33c-.87-.77-.4-2.2.75-2.32l3.5-.33 1.4-3.23ZM9.4 5.23 8 2 6.6 5.23c-.2.44-.61.75-1.1.8L2 6.35l2.64 2.33c.36.32.52.81.42 1.28l-.77 3.44 3.03-1.79c.42-.25.94-.25 1.36 0l3.03 1.8-.77-3.45c-.1-.47.06-.96.42-1.28L14 6.36l-3.5-.34c-.49-.04-.9-.35-1.1-.8Z" fill="#FF3F3A"/></svg>