<svg viewBox="0 0 600 440" fill="none" xmlns="http://www.w3.org/2000/svg"><path d="M600 419.86H0l107.7-63.67h386.24L600 419.86Z" fill="#D0F0E4"/><path d="M344 108.58H236.07V46.09a7.66 7.66 0 0 1 7.65-7.66h92.65a7.66 7.66 0 0 1 7.65 7.66v62.49Z" fill="#fff"/><path fill-rule="evenodd" clip-rule="evenodd" d="M243.71 38.91a7.17 7.17 0 0 0-7.17 7.18v62h106.99v-62a7.18 7.18 0 0 0-7.17-7.18H243.7Zm100.3 69.67h.48V46.09c0-4.5-3.64-8.14-8.13-8.14H243.7a8.14 8.14 0 0 0-8.13 8.14v62.97h108.43v-.48Z" fill="#66B0F0"/><path d="M335.86 104.5h-91.2a4.36 4.36 0 0 1-4.35-4.35V46.59c0-2.4 1.95-4.36 4.35-4.36h91.2c2.4 0 4.35 1.95 4.35 4.36v53.57c0 2.4-1.95 4.35-4.35 4.35ZM362.93 123.24c4.13 2.7 3.17 7.97-1.71 7.97H214.16c-4.11 0-5.52-5.56-1.49-8.11l150.26.14Z" fill="#66B0F0"/><path fill-rule="evenodd" clip-rule="evenodd" d="m212.53 122.62 150.54.14.12.08c2.2 1.43 3.11 3.6 2.73 5.49-.38 1.91-2.07 3.36-4.7 3.36H214.16a4.27 4.27 0 0 1-4.27-3.48c-.4-1.9.34-4.14 2.53-5.52l.12-.07Zm.28.96a4.25 4.25 0 0 0-1.98 4.43 3.31 3.31 0 0 0 3.33 2.72h147.06c2.24 0 3.48-1.2 3.76-2.6.28-1.39-.35-3.15-2.2-4.4l-149.96-.15Z" fill="#66B0F0"/><path d="M361.22 127.54H214.16c-2.62 0-3.66-3.1-1.49-4.44l23.42-14.52H343.7l19.21 14.66c1.92 1.46.8 4.3-1.7 4.3Z" fill="#fff"/><path fill-rule="evenodd" clip-rule="evenodd" d="M235.96 108.1h107.9l19.34 14.76c1.14.86 1.4 2.17.97 3.25a3.09 3.09 0 0 1-2.95 1.9H214.16c-1.52 0-2.62-.9-3-2.03a2.76 2.76 0 0 1 1.26-3.29m0 0 23.54-14.6-23.54 14.6Zm23.81-13.63-23.3 14.45c-.9.55-1.1 1.42-.86 2.16.25.75.99 1.39 2.1 1.39h147.05c1.05 0 1.78-.6 2.06-1.3.27-.7.13-1.54-.66-2.13l-19.08-14.57h-107.3Z" fill="#66B0F0"/><path d="M344.25 123.16H231.13c-2.01 0-2.82-2.39-1.15-3.41l16.26-11.17h84.53l14.78 11.28c1.48 1.12.62 3.3-1.3 3.3Z" fill="#fff"/><path fill-rule="evenodd" clip-rule="evenodd" d="M246.1 108.1h84.83l14.9 11.38c.93.7 1.14 1.75.8 2.63a2.49 2.49 0 0 1-2.38 1.53H231.13c-1.21 0-2.1-.73-2.41-1.65a2.23 2.23 0 0 1 1-2.64l16.38-11.25Zm.3.96-16.16 11.1c-.64.39-.79 1-.61 1.53.18.53.7 1 1.5 1h113.12c.76 0 1.28-.44 1.48-.93.2-.5.1-1.09-.47-1.52l-14.65-11.18h-84.22Z" fill="#66B0F0"/><path fill-rule="evenodd" clip-rule="evenodd" d="m337.9 123.5-14.78-14.58.67-.68 14.8 14.58-.68.69ZM328.28 123.48l-13.03-14.58.72-.64L329 122.84l-.72.64ZM319.2 123.46l-11.3-14.58.76-.6 11.3 14.59-.76.59ZM309.24 123.43l-9.56-14.59.8-.53 9.56 14.59-.8.53ZM297.48 123.31l-4.66-14.58.91-.3 4.66 14.59-.91.3ZM237.98 122.82l14.8-14.58.67.68-14.8 14.59-.67-.69ZM247.57 122.84l13.03-14.58.71.64-13.03 14.58-.71-.64ZM256.6 122.87l11.3-14.59.77.6-11.3 14.58-.76-.6ZM266.52 122.9l9.56-14.59.8.53-9.55 14.59-.8-.53ZM278.17 123.02l4.66-14.59.92.3-4.66 14.58-.92-.3ZM288.38 108.58v14.76h-.96v-14.76h.96Z" fill="#66B0F0"/><path fill-rule="evenodd" clip-rule="evenodd" d="M337.92 114.5h-99.6v-.95h99.6v.96Z" fill="#66B0F0"/><path d="M328.27 104.5h-80.99l1.46-10.33a16.25 16.25 0 0 1 11.62-13.35l19.74-4.1h15.35l19.74 4.1a16.18 16.18 0 0 1 11.62 13.35l1.46 10.34Z" fill="#FFCF2D"/><path d="m293.24 88.53-5.84-5.91c-.13-.13-.13-.34 0-.45.13-.13.34-.13.45 0l5.36 5.43 8.33-9.44a.32.32 0 0 1 .44-.03c.13.11.15.32.04.45l-8.78 9.95Z" fill="#fff"/><path d="m282.39 88.53-8.77-9.95c-.12-.13-.12-.34.03-.45.13-.11.34-.11.45.03l8.32 9.44 5.37-5.43a.3.3 0 0 1 .44 0c.13.12.13.32 0 .44l-5.84 5.92ZM287.91 92.39a1.4 1.4 0 1 1 0-2.79 1.4 1.4 0 0 1 0 2.79Zm0-2.15a.75.75 0 1 0 0 1.5.75.75 0 0 0 0-1.5ZM287.91 100.24a1.4 1.4 0 1 1 0-2.79 1.4 1.4 0 0 1 0 2.8Zm0-2.14a.75.75 0 1 0 0 1.5.75.75 0 0 0 0-1.5Z" fill="#fff"/><path d="M280 104.17h-26.15l-6.98-20.74 26.16-7.5 6.98 28.24Z" fill="#fff"/><path fill-rule="evenodd" clip-rule="evenodd" d="m273.26 75.53 7.15 28.96h-26.8l-7.15-21.27 26.8-7.69Zm-25.98 8.12 6.8 20.2h25.52l-6.8-27.52-25.52 7.32Z" fill="#66B0F0"/><path d="M255.2 86.12h-.49a2.29 2.29 0 0 1-2.29-2.29v-7.2c0-.5.42-.92.93-.92h2.16c.51 0 .93.41.93.93v8.23c.02.7-.54 1.25-1.23 1.25Z" fill="#fff"/><path fill-rule="evenodd" clip-rule="evenodd" d="M253.35 76.03c-.34 0-.6.27-.6.6v7.2c0 1.1.87 1.97 1.96 1.97h.5a.9.9 0 0 0 .91-.92v-8.24a.6.6 0 0 0-.6-.61h-2.17Zm-1.25.6c0-.68.56-1.24 1.25-1.24h2.16c.7 0 1.25.56 1.25 1.25v8.23c.02.87-.69 1.57-1.55 1.57h-.5a2.61 2.61 0 0 1-2.6-2.6v-7.2Z" fill="#66B0F0"/><path d="M265.74 86.12h.5a2.29 2.29 0 0 0 2.29-2.29v-7.2a.93.93 0 0 0-.93-.92h-2.18a.93.93 0 0 0-.93.93v8.23c0 .7.56 1.25 1.25 1.25ZM259.23 86.96h-1.16c-.9 0-1.61-.72-1.61-1.62v-8.69c0-.51.41-.93.93-.93h2.16c.5 0 .93.42.93.93v9.06c0 .69-.57 1.25-1.25 1.25Z" fill="#fff"/><path d="M263.26 87.28h-.96c-1 0-1.82-.82-1.82-1.83v-8.81c0-.52.41-.93.92-.93h2.16c.52 0 .93.41.93.93v9.39c0 .69-.56 1.25-1.23 1.25Z" fill="#fff"/><path fill-rule="evenodd" clip-rule="evenodd" d="M264.17 76.64c0-.7.56-1.25 1.25-1.25h2.18c.69 0 1.25.56 1.25 1.25v7.2a2.61 2.61 0 0 1-2.61 2.6h-.5c-.86 0-1.57-.7-1.57-1.57v-8.23Zm1.25-.61a.6.6 0 0 0-.6.6v8.24c0 .52.41.93.92.93h.5c1.08 0 1.97-.88 1.97-1.97v-7.2a.6.6 0 0 0-.61-.6h-2.18ZM257.38 76.04a.6.6 0 0 0-.6.61v8.69c0 .72.57 1.3 1.3 1.3h1.15c.5 0 .92-.42.92-.93v-9.06a.6.6 0 0 0-.6-.6h-2.17Zm-1.24.61c0-.69.56-1.25 1.25-1.25h2.16c.69 0 1.25.56 1.25 1.25v9.06c0 .86-.7 1.57-1.57 1.57h-1.16a1.93 1.93 0 0 1-1.93-1.94v-8.69Z" fill="#66B0F0"/><path fill-rule="evenodd" clip-rule="evenodd" d="M261.4 76.03a.6.6 0 0 0-.6.6v8.82c0 .83.67 1.5 1.5 1.5h.96c.5 0 .91-.4.91-.92v-9.4a.6.6 0 0 0-.6-.6h-2.17Zm-1.25.6c0-.68.56-1.24 1.25-1.24h2.17c.68 0 1.24.56 1.24 1.25v9.39c0 .86-.7 1.57-1.55 1.57h-.96a2.15 2.15 0 0 1-2.15-2.15v-8.81Z" fill="#66B0F0"/><path d="M295.47 67.3V79c0 2.01-3.44 3.66-7.68 3.66-4.25 0-7.69-1.65-7.69-3.67V67.3h15.37Z" fill="#fff"/><path d="M295.47 67.3c0 8.82-5.65 11.45-11.08 10.99h-.05a4.7 4.7 0 0 1-4.22-4.68v-6.3h15.35v-.02Z" fill="#66B0F0"/><path d="M299.04 64.28v.6a2.36 2.36 0 0 1-2.37 2.37h-1.22l.02.27a6.84 6.84 0 0 1-6.84 6.84h-1.68a6.84 6.84 0 0 1-6.83-6.84l.01-.27h-1.21a2.37 2.37 0 0 1-2.37-2.38v-.59a2.37 2.37 0 0 1 2.37-2.37h1.55l.18-2.9c0-.45.06-.88.19-1.28 4.58 1.13 9.94-1.82 11.38-2.7 1.6.61 2.74 2.15 2.74 3.96l.17 2.9h1.56a2.39 2.39 0 0 1 2.35 2.4Z" fill="#fff"/><path d="M296.78 61.9h-1.66l-.18-2.9a4.23 4.23 0 0 0-2.74-3.95c-1.44.86-6.8 3.81-11.38 2.7-.13.4-.19.82-.19 1.27l-.18 2.9h-1.04s-2.13-10.32-.03-12.2c1.55-1.4 15.77 1.64 17.34 3.8.88 1.24.06 8.39.06 8.39Z" fill="#E57281"/><path d="M292.78 61.28a.23.23 0 0 1-.16-.06 4.52 4.52 0 0 0-2.72-.87.25.25 0 0 1-.24-.24c0-.12.11-.24.24-.24a4.9 4.9 0 0 1 3.02.98c.1.08.12.24.04.34-.04.06-.12.1-.18.1ZM286.7 66.25c-.04 0-.07 0-.08-.02-.13-.04-.2-.19-.15-.3a5.22 5.22 0 0 0-.29-3.99c-.36-.8-.9-1.38-1.36-1.54-1.02-.35-2.46.15-2.48.15-.13.04-.25-.02-.3-.15-.05-.13.01-.26.14-.3.07-.02 1.6-.55 2.79-.15.59.21 1.2.87 1.63 1.8.67 1.42.78 3.06.3 4.37-.01.07-.1.13-.2.13ZM289.85 68.8c.02.13-.1.24-.22.26h-.02c-.13 0-.22-.1-.24-.23a2.18 2.18 0 0 0-.1-.46c-.68.33-1.3.45-1.82.45-1 0-1.62-.42-1.65-.45-.11-.08-.13-.23-.06-.34.08-.11.22-.13.33-.06.04.01.55.37 1.38.37.45 0 1-.1 1.62-.4-.1-.17-.2-.26-.2-.26a.23.23 0 0 1 .02-.34c.1-.08.26-.08.34.02.03.05.57.65.62 1.44ZM290.71 64.22c.23-.01.38-.38.36-.83-.03-.44-.23-.78-.45-.77-.23.01-.38.38-.35.82.02.45.22.8.44.78Z" fill="#66B0F0"/><path d="M284.18 64.15c.2 0 .35-.35.32-.76-.02-.4-.2-.72-.41-.7-.2 0-.35.34-.32.75.02.4.2.73.4.71ZM279.7 65.05a.25.25 0 0 1-.24-.24c0-.7-.57-1.27-1.26-1.27a.25.25 0 0 1-.24-.24c0-.13.1-.24.24-.24.96 0 1.74.79 1.74 1.75 0 .14-.11.24-.24.24ZM295.8 65.05a.25.25 0 0 1-.24-.24c0-.96.79-1.75 1.75-1.75.13 0 .24.11.24.24s-.11.24-.24.24c-.7 0-1.26.58-1.26 1.27 0 .14-.1.24-.24.24Z" fill="#66B0F0"/><path fill-rule="evenodd" clip-rule="evenodd" d="M79.87 192.9a11.2 11.2 0 0 1 10.75-8.1h416.15c4.93 0 9.3 3.23 10.72 7.95m-436.7.42L15.37 420l-.93-.27L79.87 192.9m.92.27a10.24 10.24 0 0 1 9.83-7.4h416.15c4.5 0 8.5 2.95 9.8 7.26L585.13 420l.92-.28-68.56-226.97M386.64 109.06H204.62v-.96h182.02v.96Z" fill="#66B0F0"/><path d="M267.8 143.07h42.99v36.97h-43v-36.97Z" fill="#FFCF2D"/><path d="m428.58 314.86-20-49.85h32.2l-12.2 49.85ZM373.72 198.49a24.78 24.78 0 0 1 21.9-13.2h24.76l16.83 13.2h-63.5Z" fill="#9A3B82"/><path d="M467.6 256.84h-62.38l23.49 57.07c-1.63-2.66-11.41.11-21.77 6.47-10.23 6.29-17.15 13.85-15.74 16.6l-50.62-88.17c-13.13-22.25 2.88-50.32 28.69-50.32h139.8l.3.96c9.13 28.37-12 57.39-41.76 57.39Z" fill="#3FB1B5"/><path d="M511.49 214.85a43.38 43.38 0 0 1-3.33 14.9l-73.32-31.25h72.78l1.7 4.97c1.18 2.98 1.83 7.16 2.17 11.38Z" fill="#E6E6E6"/><path d="M428.73 313.9c1.63 2.67-5.51 9.93-15.85 16.3-10.36 6.35-19.98 9.54-21.62 6.88-1.63-2.66 5.34-10.17 15.7-16.54 10.34-6.36 20.12-9.3 21.77-6.63Z" fill="#66B0F0"/><path fill-rule="evenodd" clip-rule="evenodd" d="M475.53 202.55c.26-.05.51.11.57.37a19.3 19.3 0 0 1-18.87 23.3h-88.67a9.1 9.1 0 0 0-7.92 13.54l45.53 80.58a.48.48 0 0 1-.84.47l-45.52-80.58a10.06 10.06 0 0 1 8.75-14.98h88.68a18.34 18.34 0 0 0 17.92-22.13.48.48 0 0 1 .37-.57Z" fill="#fff"/><path fill-rule="evenodd" clip-rule="evenodd" d="M421.89 313.54c-3.7.92-8.65 3.19-14.7 6.71a54.25 54.25 0 0 0-12.65 9.99 19.08 19.08 0 0 0-3.04 4.27c-.29.6-.45 1.12-.5 1.55-.05.43.01.73.14.95.14.22.07.52-.15.66a.48.48 0 0 1-.66-.16 2.4 2.4 0 0 1-.29-1.56c.07-.57.28-1.2.59-1.86a19.97 19.97 0 0 1 3.2-4.5c2.95-3.27 7.45-7 12.88-10.17 6.07-3.54 11.11-5.86 14.94-6.81 1.92-.48 3.57-.63 4.92-.4 1.36.25 2.42.88 3.09 1.96a.48.48 0 1 1-.81.5c-.5-.8-1.3-1.3-2.45-1.5-1.16-.2-2.66-.1-4.51.37Z" fill="#fff"/><path fill-rule="evenodd" clip-rule="evenodd" d="M399.68 243.33c.24-.1.52.02.62.26l29.75 71a.48.48 0 1 1-.89.37l-29.74-71a.48.48 0 0 1 .25-.63ZM440.1 198.44h-72.58v-.96h72.57v.96Z" fill="#fff"/><path d="m408.57 340.75-4.32-5.9-5.96-8.1a72.38 72.38 0 0 1 8.65-6.2c6.53-4.01 12.82-6.67 17-7.41l2.9 5.78 3.61 7.22c-2.56 9.12-21.88 14.61-21.88 14.61Z" fill="#E57281"/><path d="M426.85 318.92c-2.69 3.29-7.75 7.44-13.98 11.27a85 85 0 0 1-8.6 4.67l-5.96-8.12a72.36 72.36 0 0 1 8.64-6.2c6.53-4 12.82-6.66 17-7.4l2.9 5.78Z" fill="#9A3B82"/><path d="m450.24 357.92-43.93 31.59c-3.73 2.6-9.52 4.76-8.75-4.64 1.07-12.94 3.94-32.2 11.01-44.13.3-.08 19.32-5.58 21.88-14.62l20.03 14.25a11 11 0 0 1-.24 17.55Z" fill="#fff"/><path fill-rule="evenodd" clip-rule="evenodd" d="m430.18 325.33 20.59 14.65a11.49 11.49 0 0 1-.25 18.32l-43.93 31.6c-.95.66-2.05 1.3-3.15 1.74-1.1.44-2.24.7-3.27.52a3.32 3.32 0 0 1-2.53-2.04c-.54-1.18-.76-2.9-.56-5.29.53-6.48 1.52-14.56 3.26-22.51 1.74-7.95 4.24-15.8 7.82-21.83l.1-.17.19-.05h.02a.9.9 0 0 0 .05-.02l.18-.05a43.6 43.6 0 0 0 2.9-.96 66.9 66.9 0 0 0 6.85-2.88 37.1 37.1 0 0 0 7.24-4.52c2.11-1.76 3.7-3.72 4.3-5.85l.19-.66Zm.53 1.56c-.8 2.13-2.42 4.03-4.4 5.69a38.02 38.02 0 0 1-7.43 4.64 68.8 68.8 0 0 1-10 3.93c-3.44 5.87-5.88 13.54-7.6 21.37a174.6 174.6 0 0 0-3.25 22.4c-.18 2.3.04 3.84.48 4.8.43.94 1.07 1.36 1.82 1.5.78.12 1.74-.06 2.75-.47 1.02-.4 2.04-1 2.96-1.64l43.92-31.58a10.52 10.52 0 0 0 .23-16.78l-19.48-13.86Z" fill="#FFCF2D"/><path fill-rule="evenodd" clip-rule="evenodd" d="M432.8 327.44c.25.07.4.33.32.59-.79 2.8-2.65 5.31-5 7.5a38.13 38.13 0 0 1-8.13 5.57 49.12 49.12 0 0 1-8.19 3.4c-1.2.37-2.28.64-3.18.79a6.7 6.7 0 0 1-2.17.1.48.48 0 0 1 .18-.94c.34.06.96.04 1.83-.1.85-.15 1.89-.4 3.06-.77 2.35-.71 5.2-1.84 8.02-3.33a37.1 37.1 0 0 0 7.92-5.43c2.28-2.11 4.01-4.49 4.74-7.05.07-.26.34-.4.6-.33Z" fill="#FFCF2D"/><path d="M401.81 386.25s28.68-39.87 49.07-37.63c22.2 2.42-67.22 60.89-49.07 37.63Z" fill="#FFCF2D"/><path fill-rule="evenodd" clip-rule="evenodd" d="m400.06 385.35-.4-.29.4.29-.01.01c-1.57 2.01-1.7 3.52-1.32 4.45a2.25 2.25 0 0 0 2.24 1.4c.26-.02.49.18.5.44.02.27-.18.5-.44.51a3.2 3.2 0 0 1-3.2-1.99c-.54-1.37-.22-3.24 1.46-5.4l.01-.02.07-.09.25-.35 1-1.3a182.84 182.84 0 0 1 16.3-18.66c5.06-5.04 10.8-10.02 16.64-13.6 5.82-3.56 11.78-5.77 17.25-5.17a4.66 4.66 0 0 1 3.68 2.17 4.6 4.6 0 0 1 .34 3.8.48.48 0 1 1-.91-.3 3.65 3.65 0 0 0-.25-3.01c-.5-.86-1.46-1.54-2.97-1.7-5.15-.57-10.89 1.5-16.64 5.03-5.74 3.53-11.43 8.45-16.48 13.45a182.01 182.01 0 0 0-17.18 19.87l-.26.34-.06.09-.02.02Z" fill="#FFCF2D"/><path d="M511.65 218.1c-10.15-2.4-35.41-8.73-64.23-15.4a45.02 45.02 0 0 1-30.72-24.98l-26.24-56.83 15.89-25.2a28.48 28.48 0 0 1 22.34-13.25l15.63-.96c15.75-.96 28.4 8.88 33.2 23.92l31.78 93.09c3.49 8.72 2.35 19.61 2.35 19.61Z" fill="#fff"/><path fill-rule="evenodd" clip-rule="evenodd" d="m444.35 81.96-15.63.96a28 28 0 0 0-21.97 13.03l-15.74 24.97 26.13 56.6a44.54 44.54 0 0 0 30.39 24.71c19.9 4.6 38.13 9.06 50.83 12.16 5.37 1.3 9.75 2.38 12.86 3.12l.07-1.27c.05-1.15.09-2.77.01-4.66-.15-3.79-.74-8.63-2.45-12.92l-31.79-93.1c-4.74-14.88-17.2-24.55-32.71-23.6Zm67.3 136.14.48.05-.06.55-.53-.13c-3.15-.74-7.73-1.86-13.42-3.25-12.7-3.1-30.9-7.54-50.8-12.15a45.5 45.5 0 0 1-31.05-25.25l-26.35-57.07 16.02-25.41a28.96 28.96 0 0 1 22.72-13.48L444.3 81c16-.98 28.82 9.02 33.68 24.25l31.78 93.07c1.77 4.43 2.36 9.39 2.51 13.22a56.2 56.2 0 0 1-.1 6.12l-.02.36v.06l-.01.04v.03l-.48-.05Z" fill="#FE5244"/><path fill-rule="evenodd" clip-rule="evenodd" d="m403.88 124.33.4-.25.4-.26.02.03a6.19 6.19 0 0 0 .36.51 37.55 37.55 0 0 0 6.08 6.27 42.35 42.35 0 0 0 20.6 9.01l-.14.95a43.31 43.31 0 0 1-21.07-9.2 38.41 38.41 0 0 1-6.24-6.46 13.72 13.72 0 0 1-.4-.58l-.01-.01Z" fill="#FE5244"/><path d="M415.55 100.16a1.78 1.78 0 1 0-2.6 2.43 1.78 1.78 0 0 0 2.6-2.43Z" fill="#FFCF2D"/><path fill-rule="evenodd" clip-rule="evenodd" d="M412.2 100.43a2.26 2.26 0 1 1 4.1 1.9 2.26 2.26 0 0 1-4.1-1.9Zm.87.4a1.3 1.3 0 0 0 1.37 1.82 1.29 1.29 0 0 0 .76-2.16 1.3 1.3 0 0 0-2.13.34Z" fill="#FE5244"/><path d="M455.43 127.55a1.78 1.78 0 1 0-2.6 2.43 1.78 1.78 0 0 0 2.6-2.43Z" fill="#FFCF2D"/><path fill-rule="evenodd" clip-rule="evenodd" d="M452.08 127.81a2.26 2.26 0 1 1 4.1 1.9 2.26 2.26 0 0 1-4.1-1.9Zm.87.41a1.3 1.3 0 0 0 1.37 1.82 1.29 1.29 0 0 0 .76-2.16 1.3 1.3 0 0 0-2.13.34Z" fill="#FE5244"/><path d="M468.06 138.77a1.78 1.78 0 1 0-2.6 2.43 1.78 1.78 0 0 0 2.6-2.43Z" fill="#FFCF2D"/><path fill-rule="evenodd" clip-rule="evenodd" d="M464.7 139.03a2.26 2.26 0 0 1 3.7-.59h.01a2.26 2.26 0 1 1-3.7.59Zm.88.4a1.3 1.3 0 0 0 1.37 1.83c1.01-.14 1.46-1.38.75-2.16a1.3 1.3 0 0 0-2.12.34Z" fill="#FE5244"/><path d="M492.28 202.25a1.78 1.78 0 1 0-1.04 2.97c1.4-.21 2-1.91 1.04-2.97Z" fill="#FFCF2D"/><path fill-rule="evenodd" clip-rule="evenodd" d="M488.93 202.51a2.26 2.26 0 0 1 3.7-.58 2.26 2.26 0 1 1-3.7.59Zm.87.4a1.3 1.3 0 0 0 1.37 1.83 1.3 1.3 0 0 0 .75-2.16 1.3 1.3 0 0 0-2.12.34Z" fill="#FE5244"/><path d="M478.72 171.91a1.78 1.78 0 1 0-2.6 2.43 1.78 1.78 0 0 0 2.6-2.43Z" fill="#FFCF2D"/><path fill-rule="evenodd" clip-rule="evenodd" d="M475.37 172.18a2.26 2.26 0 1 1 4.1 1.9 2.26 2.26 0 0 1-4.1-1.9Zm.87.4a1.3 1.3 0 0 0 1.37 1.82 1.29 1.29 0 0 0 .76-2.16 1.3 1.3 0 0 0-2.13.34Z" fill="#FE5244"/><path d="M484.34 150.09a1.78 1.78 0 0 0-1.31 2.64 1.77 1.77 0 0 0 3.12-.08 1.77 1.77 0 0 0-1.81-2.56Z" fill="#FFCF2D"/><path fill-rule="evenodd" clip-rule="evenodd" d="M486.57 152.87a2.25 2.25 0 0 1-3.96.1 2.26 2.26 0 0 1 1.66-3.36 2.25 2.25 0 0 1 2.3 3.26Zm-.85-.44c.48-.93-.3-2-1.32-1.87a1.3 1.3 0 0 0-.96 1.93c.52.9 1.81.87 2.28-.06Z" fill="#FE5244"/><path d="M494.57 182.46a1.78 1.78 0 0 0-1.31 2.64 1.77 1.77 0 0 0 3.12-.08 1.77 1.77 0 0 0-1.81-2.56Z" fill="#FFCF2D"/><path fill-rule="evenodd" clip-rule="evenodd" d="M496.8 185.24a2.25 2.25 0 0 1-3.96.1 2.26 2.26 0 0 1 1.67-3.36 2.25 2.25 0 0 1 2.3 3.26Zm-.85-.44c.48-.93-.28-2-1.32-1.87a1.3 1.3 0 0 0-.96 1.93c.52.9 1.81.87 2.28-.05Z" fill="#FE5244"/><path d="M452.14 147.54a1.78 1.78 0 1 0-2.6 2.42 1.78 1.78 0 0 0 2.6-2.42Z" fill="#FFCF2D"/><path fill-rule="evenodd" clip-rule="evenodd" d="M448.8 147.8a2.26 2.26 0 0 1 3.7-.59 2.26 2.26 0 1 1-3.7.59Zm.87.4a1.3 1.3 0 0 0 1.36 1.83 1.3 1.3 0 0 0 .76-2.17 1.3 1.3 0 0 0-2.12.34Z" fill="#FE5244"/><path d="M443.32 165.7a1.78 1.78 0 1 0-2.6 2.42 1.78 1.78 0 0 0 2.6-2.43Z" fill="#FFCF2D"/><path fill-rule="evenodd" clip-rule="evenodd" d="M439.98 165.96a2.26 2.26 0 1 1 4.1 1.9 2.26 2.26 0 0 1-4.1-1.9Zm.87.4a1.3 1.3 0 0 0 1.36 1.82 1.29 1.29 0 0 0 .76-2.16 1.3 1.3 0 0 0-2.12.34Z" fill="#FE5244"/><path d="M427.54 159.35a1.78 1.78 0 1 0-2.96-1.04c.2 1.4 1.9 2 2.96 1.04Z" fill="#FFCF2D"/><path fill-rule="evenodd" clip-rule="evenodd" d="M424.1 158.38a2.26 2.26 0 0 1 3.18-2.38c1.44.67 1.77 2.6.59 3.7a2.26 2.26 0 0 1-3.77-1.32Zm2.77-1.51a1.3 1.3 0 1 0 .34 2.13 1.3 1.3 0 0 0-.34-2.13Z" fill="#FE5244"/><path d="M441.55 190.6a1.78 1.78 0 1 0-2.96-1.04 1.77 1.77 0 0 0 2.96 1.04Z" fill="#FFCF2D"/><path fill-rule="evenodd" clip-rule="evenodd" d="M438.11 189.63a2.26 2.26 0 0 1 3.17-2.38c1.45.67 1.78 2.6.6 3.7a2.25 2.25 0 0 1-3.77-1.32Zm2.77-1.51a1.3 1.3 0 0 0-1.82 1.37 1.29 1.29 0 0 0 2.16.76 1.3 1.3 0 0 0-.34-2.13Z" fill="#FE5244"/><path d="M465.13 163.79a1.77 1.77 0 1 0-2.96-1.04 1.77 1.77 0 0 0 2.96 1.04Z" fill="#FFCF2D"/><path fill-rule="evenodd" clip-rule="evenodd" d="M461.7 162.82a2.26 2.26 0 0 1 3.17-2.38 2.25 2.25 0 1 1-3.18 2.38Zm2.76-1.51a1.3 1.3 0 0 0-1.82 1.37 1.3 1.3 0 0 0 2.16.76 1.3 1.3 0 0 0-.34-2.13Z" fill="#FE5244"/><path d="M473.18 197.35a1.77 1.77 0 1 0-2.96-1.04 1.76 1.76 0 0 0 2.96 1.04Z" fill="#FFCF2D"/><path fill-rule="evenodd" clip-rule="evenodd" d="M469.74 196.37a2.26 2.26 0 0 1 3.18-2.38c1.44.68 1.77 2.61.59 3.71a2.25 2.25 0 0 1-3.77-1.33Zm2.77-1.5a1.3 1.3 0 0 0-1.82 1.37 1.29 1.29 0 0 0 2.16.76 1.3 1.3 0 0 0-.34-2.13Z" fill="#FE5244"/><path d="M424.9 129.38a1.78 1.78 0 1 0-2.6 2.43 1.78 1.78 0 0 0 2.6-2.43Z" fill="#FFCF2D"/><path fill-rule="evenodd" clip-rule="evenodd" d="M421.55 129.64a2.26 2.26 0 1 1 4.1 1.9 2.26 2.26 0 0 1-4.1-1.9Zm.87.4a1.3 1.3 0 0 0 1.37 1.83 1.29 1.29 0 0 0 .76-2.16 1.3 1.3 0 0 0-2.13.34Z" fill="#FE5244"/><path d="M427.76 87.8a1.78 1.78 0 1 0-2.6 2.43 1.78 1.78 0 0 0 2.6-2.42Z" fill="#FFCF2D"/><path fill-rule="evenodd" clip-rule="evenodd" d="M424.41 88.07a2.26 2.26 0 1 1 4.1 1.9 2.26 2.26 0 0 1-4.1-1.9Zm.88.4a1.3 1.3 0 0 0 1.36 1.83 1.29 1.29 0 0 0 .76-2.16 1.3 1.3 0 0 0-2.12.33Z" fill="#FE5244"/><path d="M455.43 87.8a1.78 1.78 0 1 0-2.6 2.43 1.78 1.78 0 0 0 2.6-2.42Z" fill="#FFCF2D"/><path fill-rule="evenodd" clip-rule="evenodd" d="M452.08 88.07a2.26 2.26 0 1 1 4.1 1.9 2.26 2.26 0 0 1-4.1-1.9Zm.87.4a1.3 1.3 0 0 0 1.37 1.83 1.29 1.29 0 0 0 .76-2.16 1.3 1.3 0 0 0-2.13.33Z" fill="#FE5244"/><path d="M455.47 105.76a1.78 1.78 0 1 0 1.32 3.3 1.78 1.78 0 0 0-1.32-3.3Z" fill="#FFCF2D"/><path fill-rule="evenodd" clip-rule="evenodd" d="M455.3 105.31a2.26 2.26 0 1 1-.8 3.67 2.26 2.26 0 0 1 .8-3.67m2.1 2.39a1.3 1.3 0 1 0-2.53-.58 1.3 1.3 0 0 0 2.52.58Z" fill="#FE5244"/><path d="M439.75 95.53a1.77 1.77 0 1 0 .96 3.41 1.77 1.77 0 0 0-.96-3.4Z" fill="#FFCF2D"/><path fill-rule="evenodd" clip-rule="evenodd" d="M439.62 95.07a2.25 2.25 0 1 1-1.15 3.57v-.01a2.26 2.26 0 0 1 1.15-3.56Zm1.84 2.58c.34-1-.58-1.95-1.57-1.66a1.3 1.3 0 0 0-.67 2.05c.65.8 1.91.58 2.24-.39Z" fill="#FE5244"/><path d="M437.43 139.93a1.77 1.77 0 1 0 1.78 2.6 1.78 1.78 0 0 0-1.78-2.6Z" fill="#FFCF2D"/><path fill-rule="evenodd" clip-rule="evenodd" d="M439.63 142.75a2.26 2.26 0 0 0-2.25-3.3 2.25 2.25 0 1 0 2.26 3.3Zm-2.14-2.35a1.3 1.3 0 1 1-.98 1.92 1.3 1.3 0 0 1 .98-1.92Z" fill="#FE5244"/><path d="M423.71 173.3a1.77 1.77 0 1 0 1.78 2.6 1.78 1.78 0 0 0-1.78-2.6Z" fill="#FFCF2D"/><path fill-rule="evenodd" clip-rule="evenodd" d="M425.92 176.13a2.26 2.26 0 0 0-2.26-3.3 2.25 2.25 0 1 0 2.26 3.3Zm-2.15-2.34a1.3 1.3 0 1 1-.98 1.92 1.3 1.3 0 0 1 .98-1.92Z" fill="#FE5244"/><path d="M428.32 108.77a1.77 1.77 0 1 0 .96 3.41 1.77 1.77 0 0 0-.96-3.41Z" fill="#FFCF2D"/><path fill-rule="evenodd" clip-rule="evenodd" d="M430.94 111.2c.6-1.72-1-3.38-2.75-2.9a2.26 2.26 0 0 0-1.16 3.57 2.25 2.25 0 0 0 3.91-.67Zm-2.48-1.97a1.3 1.3 0 1 1-.67 2.05 1.3 1.3 0 0 1 .67-2.05Z" fill="#FE5244"/><path d="M441.58 117.75a1.78 1.78 0 1 0 .96 3.41 1.78 1.78 0 0 0-.96-3.41Z" fill="#FFCF2D"/><path fill-rule="evenodd" clip-rule="evenodd" d="M441.45 117.28a2.25 2.25 0 0 1 2.75 2.9 2.25 2.25 0 0 1-3.9.67h-.01a2.26 2.26 0 0 1 1.16-3.57Zm1.84 2.58c.34-1-.58-1.94-1.58-1.65a1.3 1.3 0 0 0-.66 2.04c.64.81 1.91.58 2.24-.38Z" fill="#FE5244"/><path d="M412.88 117.36c.8-.98.37-2.45-.85-2.82a1.77 1.77 0 0 0-2.23 2.18 1.77 1.77 0 0 0 3.08.64Z" fill="#FFCF2D"/><path fill-rule="evenodd" clip-rule="evenodd" d="M412.17 114.08a2.25 2.25 0 1 1-2.83 2.78 2.25 2.25 0 0 1 2.83-2.78Zm-.28.92a1.3 1.3 0 1 0 .62 2.06c.58-.72.26-1.8-.62-2.06Z" fill="#FE5244"/><path d="M473.56 117.4a1.77 1.77 0 1 0-3.07-.64 1.77 1.77 0 0 0 3.07.65Z" fill="#FFCF2D"/><path fill-rule="evenodd" clip-rule="evenodd" d="M472.86 114.13a2.25 2.25 0 0 1 1.08 3.58 2.25 2.25 0 0 1-3.91-.8 2.25 2.25 0 0 1 2.83-2.78Zm-.29.92a1.29 1.29 0 0 0-1.62 1.59c.28 1 1.57 1.27 2.24.46.59-.71.27-1.78-.61-2.05Z" fill="#FE5244"/><path d="M458.16 182.38c.8-.98.37-2.45-.85-2.82a1.77 1.77 0 0 0-2.22 2.18 1.78 1.78 0 0 0 3.07.64Z" fill="#FFCF2D"/><path fill-rule="evenodd" clip-rule="evenodd" d="M457.46 179.1a2.25 2.25 0 0 1 1.08 3.58 2.26 2.26 0 0 1-3.91-.8 2.25 2.25 0 0 1 2.83-2.78Zm-.29.92c-.98-.3-1.9.61-1.62 1.58a1.3 1.3 0 0 0 2.24.47c.59-.72.27-1.78-.61-2.05Z" fill="#FE5244"/><path d="m445.39 80.95-1.07.05-15.63.96c-3.98.24-7.8 1.31-11.25 3.1l-4.8-14.4 21.4-15.7 11.35 25.99Z" fill="#E57281"/><path d="M417.37 84.83c4.45-2.02 8-5.61 10.03-10.07l7.78-17.22-1.14-2.6-21.4 15.7 4.73 14.19Z" fill="#9A3B82"/><path d="M435.42 56.4a5.38 5.38 0 0 1-5.4 5.4h-4.7a14.72 14.72 0 0 1-16.78 10.82l-3.54-.63a7.31 7.31 0 0 1-5.97-8.2l4.14-20.8a7.19 7.19 0 0 1 9.53-5.62l6.87 2.76a9.21 9.21 0 0 1 6.2 8.7v2l4.25.17a5.4 5.4 0 0 1 5.4 5.4Z" fill="#E57281"/><path fill-rule="evenodd" clip-rule="evenodd" d="M431.17 54.1a3.33 3.33 0 0 0-3.33 3.34.4.4 0 1 1-.8 0 4.13 4.13 0 0 1 4.13-4.14.4.4 0 0 1 0 .8ZM405.08 47.38c0-.23.18-.4.4-.4v.4-.4h.01a1.53 1.53 0 0 1 .16 0 7.86 7.86 0 0 1 1.94.42 8.41 8.41 0 0 1 3.97 2.96.4.4 0 0 1-.64.48 7.61 7.61 0 0 0-5.32-3.06H405.48" fill="#9A3B82"/><path d="M407.71 53.37c.17-.93-.04-1.75-.48-1.83-.43-.08-.92.61-1.1 1.55-.16.93.06 1.75.49 1.83.44.08.93-.62 1.1-1.55Z" fill="#9A3B82"/><path d="M430.02 51a5.4 5.4 0 0 1 5.4 5.4v.08c2.4-3.7 8.29-13.13 8.29-16.32 0-4.28-5.33-8.56-10.85-6.6l1.15-.87c2.13-1.66 3.25-2.91 3.42-3.81.07-.32.02-.61-.14-.83-.64-.92-1.35-1.32-2.1-1.19-1.1.18-2.24 1.54-3.38 4.04a30.85 30.85 0 0 0-1.13 2.95c-.45-2.68-2.61-11.54-11.9-10.18-3.2.47-4.7 1.8-5.12 3.25-2.66-2.08-6.21-3.71-9.16-2.16-5.09 2.68-4.46 7.07-1.52 10.18-2.78-.05-4.74.77-4.74 3.12 0 2.17 2.23 3.2 5.29 3.62 3.06.42 6.98.2 10.37-.19 2.42-.27 4.6-.6 5.99-.85-.93 1.91-1.3 3.54-1.22 4.92.14 2.86 2.21 4.54 5.12 5.13.63.13 1.3.21 1.99.24l4.24.07Zm5.27-23.5c.05-.02.1-.02.16-.02.45 0 .88.33 1.31.93.03.07.08.16.05.34-.26 1.3-3.54 3.77-5.44 5.07.75-2.22 2.33-6.05 3.92-6.32Z" fill="#FFCF2D"/><path d="M385.64 173.76H283.2a3.2 3.2 0 0 1-2.7-4.92l13.63-21.44a9.64 9.64 0 0 1 8.14-4.48h69.35l14.03 30.84Z" fill="#E57281"/><path d="m304.51 142.94 8.17-13.46a2.69 2.69 0 1 1 4.58 2.79l-6.49 10.67h-6.26Z" fill="#FE5244"/><path d="M385.64 173.76h-23.03l-.16-.16a21.81 21.81 0 0 1-4.84-22.95l3.29-7.73h10.7l14.04 30.84Z" fill="#9A3B82"/><path d="M297.66 159.37h-12.84c-.86 0-1.66.46-2.1 1.22l-1.36 2.37c-.9 1.6.25 3.6 2.1 3.6h10.33c1.8 0 3.46-.93 4.4-2.47l1.1-1.8a1.92 1.92 0 0 0-1.63-2.92ZM294.35 166.56H281.5c-.86 0-1.66.47-2.1 1.22l-1.36 2.37c-.91 1.6.24 3.6 2.1 3.6h10.33c1.79 0 3.45-.92 4.4-2.46l1.1-1.81a1.92 1.92 0 0 0-1.63-2.92ZM301.33 152.08h-12.84c-.87 0-1.67.46-2.1 1.21l-1.36 2.38c-.91 1.6.24 3.6 2.1 3.6h10.32c1.8 0 3.46-.93 4.4-2.47l1.11-1.8a1.92 1.92 0 0 0-1.63-2.92Z" fill="#E57281"/><path fill-rule="evenodd" clip-rule="evenodd" d="M282.38 160.39a2.82 2.82 0 0 1 2.44-1.42h12.84c1.8 0 2.9 1.98 1.98 3.52l-1.1 1.81a5.56 5.56 0 0 1-4.75 2.66h-10.33a2.81 2.81 0 0 1-2.44-4.2l1.36-2.37Zm.7.4-1.37 2.37c-.76 1.33.2 3 1.75 3h10.33c1.65 0 3.19-.85 4.06-2.27l1.1-1.81a1.52 1.52 0 0 0-1.29-2.31h-12.84c-.72 0-1.38.39-1.75 1.01Z" fill="#9A3B82"/><path fill-rule="evenodd" clip-rule="evenodd" d="M279.06 167.58a2.82 2.82 0 0 1 2.45-1.42h12.84c1.8 0 2.92 1.98 1.97 3.53l-1.1 1.8v.01a5.56 5.56 0 0 1-4.75 2.66h-10.32a2.81 2.81 0 0 1-2.45-4.2l1.37-2.38Zm.7.4-1.36 2.37c-.76 1.34.2 3 1.75 3h10.32c1.66 0 3.2-.85 4.06-2.27l1.11-1.81a1.52 1.52 0 0 0-1.3-2.3h-12.83c-.72 0-1.39.38-1.75 1.01ZM286.05 153.1a2.82 2.82 0 0 1 2.44-1.43h12.84c1.8 0 2.92 1.98 1.97 3.53l-1.1 1.81a5.56 5.56 0 0 1-4.75 2.66h-10.32a2.81 2.81 0 0 1-2.45-4.2l1.37-2.38Zm.69.4-1.36 2.36c-.76 1.34.2 3.01 1.75 3.01h10.32c1.66 0 3.2-.86 4.06-2.28l1.11-1.8a1.52 1.52 0 0 0-1.3-2.31H288.5c-.72 0-1.39.38-1.75 1.01Z" fill="#9A3B82"/><path d="M319.92 162.8a15.9 15.9 0 0 1-10.5-3.95l-4.86-4.26h-4.48l-1.15 1.23a10.18 10.18 0 0 1-7.64 3.48h-2.14a1.43 1.43 0 0 1-1.2-2.2l5.39-8.45h26.6v14.15h-.02Z" fill="#E57281"/><path fill-rule="evenodd" clip-rule="evenodd" d="M293.56 148.3a.4.4 0 0 1 .12.56l-5.4 8.46c-.43.68.06 1.58.87 1.58h2.14c2.9 0 5.34-1.2 7.34-3.35l1.28-1.36h4.8l4.98 4.36m-5.28-3.56 4.75 4.16c2.98 2.6 6.8 4.05 10.75 4.05a.4.4 0 0 0 0-.8c-3.76 0-7.4-1.38-10.22-3.85m-5.28-3.56h-4.16l-1.03 1.1a10.53 10.53 0 0 1-7.93 3.61h-2.14a1.83 1.83 0 0 1-1.54-2.8v-.01l5.4-8.46a.4.4 0 0 1 .55-.12" fill="#9A3B82"/><path d="m428 143.79-24.44 27.34a27.08 27.08 0 0 1-20.2 9.04 21.85 21.85 0 0 1-20.45-29.52l29.04-68.3-9.81-5.5a4.8 4.8 0 0 1-1.76-4.6L382.04 61c.52-2.5 3.06-4.45 5.54-5.03l11.5-2.6a1.4 1.4 0 0 1 1.71 1.59l-1.67 8.67c-.65 4.23 2.2 7.88 6.42 8.6 3.46.6 5.9 4.08 5.57 7.57l-7.82 48.88c-.02.03 8 12.55 24.71 15.1Z" fill="#E57281"/><path fill-rule="evenodd" clip-rule="evenodd" d="M409.32 91.03a.4.4 0 0 1 .33.46l-9.44 61.4a.4.4 0 1 1-.8-.12l9.45-61.4a.4.4 0 0 1 .46-.34ZM389.7 61.43c.21 0 .39.19.38.41l-.13 3.97c-.04 1.48.83 2.73 2.03 3.08l14.7 2.98a.4.4 0 1 1-.16.79l-14.73-2.99h-.01c-1.61-.46-2.68-2.09-2.63-3.88l.13-3.97c0-.23.2-.4.41-.4Z" fill="#9A3B82"/><path fill-rule="evenodd" clip-rule="evenodd" d="M398.9 53.36a1.54 1.54 0 0 1 1.88 1.78l-1.52 8.7a6.91 6.91 0 0 0 5.64 7.74l11.76 1.57a.4.4 0 0 1-.1.8l-11.78-1.58h-.01a7.71 7.71 0 0 1-6.3-8.66L400 55a.74.74 0 0 0-.9-.86l-12 2.8a.4.4 0 0 1-.2-.77l12.01-2.8Z" fill="#9A3B82"/><path fill-rule="evenodd" clip-rule="evenodd" d="m442.29 128.63-31.83 35.45-.71-.64 31.82-35.45.72.64Z" fill="#FE5244"/><path fill-rule="evenodd" clip-rule="evenodd" d="M391.89 82.36c0-.22.18-.4.4-.4h5.62a.4.4 0 0 1 0 .8h-5.62a.4.4 0 0 1-.4-.4ZM394.82 55.19c.58.39 1 1.03 1 1.84l-.12 8.36c0 1.04-.75 1.95-1.78 1.95h-1.76c-1.62 0-2.86-1.47-2.86-3.17v-1.28a.4.4 0 1 1 .8 0v1.28c0 1.35.96 2.37 2.06 2.37h1.76c.5 0 .98-.46.98-1.15l.11-8.37c0-.5-.25-.9-.64-1.17-.4-.27-.9-.37-1.35-.27a.4.4 0 1 1-.19-.78c.69-.16 1.42 0 2 .39Z" fill="#9A3B82"/><path fill-rule="evenodd" clip-rule="evenodd" d="M395.41 62.49c.22 0 .4.18.4.4v1.28c0 1.35.97 2.37 2.07 2.37H399a.4.4 0 0 1 0 .8h-1.12c-1.63 0-2.87-1.47-2.87-3.17v-1.28c0-.22.18-.4.4-.4Z" fill="#9A3B82"/><path fill-rule="evenodd" clip-rule="evenodd" d="m519.83 419.92-18.58-154.85.95-.12 18.59 154.85-.96.12ZM402.1 419.8l18.6-154.85.94.12-18.58 154.85-.95-.12Z" fill="#66B0F0"/><path fill-rule="evenodd" clip-rule="evenodd" d="M513.92 367.17H408.95v-.97h104.97v.97Z" fill="#66B0F0"/><path d="M410.46 265.5h101.01a2.43 2.43 0 0 0 2.43-2.44v-3.3a2.43 2.43 0 0 0-2.43-2.44H410.46a2.43 2.43 0 0 0-2.44 2.44v3.3a2.43 2.43 0 0 0 2.44 2.43Z" fill="#fff"/><path fill-rule="evenodd" clip-rule="evenodd" d="M407.55 259.76c0-1.62 1.3-2.92 2.9-2.92h101.02c1.61 0 2.92 1.3 2.92 2.92v3.3c0 1.61-1.3 2.92-2.92 2.92H410.46c-1.61 0-2.91-1.31-2.91-2.92v-3.3Zm2.9-1.96c-1.07 0-1.94.88-1.94 1.96v3.3c0 1.08.87 1.95 1.95 1.95h101.01c1.08 0 1.95-.87 1.95-1.95v-3.3c0-1.08-.87-1.96-1.95-1.96H410.46Z" fill="#FFCF2D"/><path d="m242.37 148.3-15.47 31.87h-46.72l18.77-31.86h43.42Z" fill="#fff"/><path fill-rule="evenodd" clip-rule="evenodd" d="M198.73 147.9H243l-15.85 32.67h-47.68l19.25-32.66Zm.45.81-18.3 31.06h45.78l15.07-31.06h-42.55Z" fill="#3FB1B5"/><path fill-rule="evenodd" clip-rule="evenodd" d="M213.72 154.54c.36.23.71.46 1.07.67.57.35 1.25.46 2.03.4.78-.06 1.65-.3 2.57-.6.58-.2 1.16-.42 1.75-.65l1.1-.41c.97-.35 1.95-.67 2.9-.84a7.3 7.3 0 0 1 5.58 1.01 6.62 6.62 0 0 1 1.72 1.7l.02.04v.01l-.34.21-.34.2-.02-.02a2.97 2.97 0 0 0-.33-.45 5.82 5.82 0 0 0-1.16-1.02 6.5 6.5 0 0 0-4.99-.9c-.88.16-1.8.47-2.76.81l-1.07.4c-.6.23-1.21.46-1.8.66-.94.32-1.89.58-2.77.65a4.1 4.1 0 0 1-2.5-.51c-.4-.24-.77-.48-1.14-.72a19.8 19.8 0 0 0-2.75-1.56 6.06 6.06 0 0 0-4.26-.36 20.48 20.48 0 0 0-5.42 2.46l-.33.21-.08.06-.02.01-.24-.32-.23-.32v-.01l.03-.02.09-.06a16.25 16.25 0 0 1 1.62-.98c1.09-.6 2.61-1.3 4.37-1.8a6.85 6.85 0 0 1 4.79.39c1 .44 1.97 1.06 2.91 1.66ZM212.12 159.51c.36.23.71.46 1.07.67a3.3 3.3 0 0 0 2.03.4c.78-.06 1.65-.3 2.57-.61.58-.2 1.16-.41 1.75-.64l1.1-.41c.97-.35 1.95-.67 2.9-.84a7.3 7.3 0 0 1 5.58 1.01 6.59 6.59 0 0 1 1.72 1.7l.02.04v.01l-.34.21-.34.2-.02-.02a5.8 5.8 0 0 0-1.49-1.47 6.5 6.5 0 0 0-4.99-.9c-.88.16-1.8.46-2.76.81l-1.07.4c-.6.23-1.21.46-1.8.66-.95.32-1.89.58-2.77.65a4.1 4.1 0 0 1-2.51-.52l-1.13-.7a19.9 19.9 0 0 0-2.75-1.58 6.06 6.06 0 0 0-4.26-.35 20.48 20.48 0 0 0-5.75 2.67l-.08.06-.02.01-.24-.32-.24-.33h.01l.03-.02.09-.06a18.57 18.57 0 0 1 1.62-.98c1.08-.6 2.6-1.3 4.37-1.8a6.86 6.86 0 0 1 4.79.39c1 .44 1.97 1.05 2.91 1.66Z" fill="#3FB1B5"/><path d="M259.95 291.3c0 4.28-11.87 7.74-26.72 7.74-14.86 0-26.37-3.46-26.37-7.74s11.51-7.74 26.37-7.74c14.85 0 26.72 3.47 26.72 7.74Z" fill="#FE5244"/><path d="M253.11 286.09v55.29l-1.68-7.98a18.55 18.55 0 0 0-25.74-13.11c-.08.03-.16.08-.26.11l-6.16-22.5-3.43-12.52a76.15 76.15 0 0 1 17.39-1.82c7.88 0 14.97.97 19.88 2.53Z" fill="#A0505A"/><path d="M253.11 286.09v10.42c-4.91 1.55-12 2.53-19.88 2.53-5.1 0-9.88-.42-13.96-1.12l-3.43-12.52a76.2 76.2 0 0 1 17.39-1.83c7.88-.01 14.97.96 19.88 2.52Z" fill="#73325A"/><path d="M251.93 339.76c.43.13 4.5 1.27 8.1 1.27 1.95 0 3.76-.34 4.78-1.36.88-.89 1.1-2.17.63-3.79-.42-1.44-1.22-2.34-2.39-2.66-2.14-.58-5.12 1.03-7.48 2.71 3.67-4.45 7.29-10.11 5.94-13.81a3.52 3.52 0 0 0-2.93-2.36c-1.13-.13-2.19.27-2.68 1.03-2.31 3.5-4.2 17.91-4.28 18.52l.3.45Zm4.64-18.53c.29-.43.9-.69 1.6-.69a2.69 2.69 0 0 1 2.6 1.84c.36.99.49 2.78-.94 5.8-1.34 2.85-3.77 6.2-7.23 10 .51-3.66 2.14-14.17 3.97-16.95Zm7.68 17.87c-1.06 1.06-3.46 1.38-6.96.93a38.2 38.2 0 0 1-4.47-.86c.69-.61 1.97-1.72 3.46-2.74 2.85-1.97 5.12-2.82 6.58-2.42.88.24 1.47.93 1.82 2.1.39 1.34.24 2.32-.43 3Z" fill="#FFCF2D"/><path d="m219.43 324.89-3.7 4.15a14.54 14.54 0 0 0-1.7 17.02L230.32 374a17.75 17.75 0 0 0 15.33 8.81h6.74a7.67 7.67 0 0 0 7.51-9.26l-8.48-40.15a18.55 18.55 0 0 0-31.99-8.52Z" fill="#fff"/><path fill-rule="evenodd" clip-rule="evenodd" d="M219.13 324.62a18.95 18.95 0 0 1 32.68 8.71m0 0 8.48 40.15a8.07 8.07 0 0 1-7.9 9.74h-6.74a18.15 18.15 0 0 1-15.68-9l-16.28-27.96a14.94 14.94 0 0 1 1.74-17.49l3.7-4.15m14.13-5.53a18.05 18.05 0 0 0-13.53 6.06l-3.7 4.16a14.14 14.14 0 0 0-1.65 16.55l16.28 27.95a17.35 17.35 0 0 0 15 8.61h6.73a7.27 7.27 0 0 0 7.12-8.78l-8.49-40.14a18.14 18.14 0 0 0-17.76-14.41Z" fill="#3FB1B5"/><path d="m232.03 336.97 21.02 40.77a8.85 8.85 0 0 0 3.63 3.78 7.66 7.66 0 0 1-4.29 1.32h-6.74a17.75 17.75 0 0 1-15.34-8.81l-16.28-27.97a14.95 14.95 0 0 1-1.48-3.56c-2.31-8.57 7.44-15.3 14.76-10.27a18.2 18.2 0 0 1 4.72 4.74Z" fill="#3FB1B5"/><path d="M232.08 337.07h-19.4c.09-.3.2-.6.33-.87h18.44l.58.79.05.08ZM234.93 342.58h-22.35l-.02-.08-.18-.78h22.11l.44.86ZM237.78 348.11h-22.55l-.5-.88h22.6l.44.88ZM240.62 353.64h-22.17l-.51-.88h22.24l.44.88ZM243.47 359.15h-21.8l-.51-.86h21.87l.44.86ZM246.32 364.68H224.9l-.51-.88h21.48l.46.88ZM249.17 370.21h-21.06l-.52-.88h21.12l.46.88ZM252 375.73h-20.55l-.6-.87h20.7l.46.87ZM256.22 381.25h-17.87c-.57-.25-1.14-.54-1.68-.86h18.4c.36.32.75.6 1.15.86Z" fill="#fff"/><path d="M194.38 290.16c-.15 4.23-12.14 7.66-26.9 7.66-14.76 0-26.75-3.41-26.9-7.66v-33.32h53.8v33.32Z" fill="#73325A"/><path d="m190.8 295.69-.08 3.96-.76 38.64v-1.13c0-9.92-8.04-17.96-17.95-17.96h-1.09c-5.06 0-9.62 1.97-13 5.14l-2.35-15.93-1.46-9.85c3.94.65 8.5 1.02 13.35 1.02 10-.01 18.69-1.58 23.34-3.9Z" fill="#A0505A"/><path d="m190.8 295.69-.08 3.96c-5.95 4.23-24.34 9.44-35.13 8.75l-1.46-9.86c3.94.64 8.5 1.03 13.35 1.03 9.97 0 18.67-1.57 23.32-3.88Z" fill="#73325A"/><path d="M172.83 383.35h2.98c7.8 0 14.15-6.34 14.15-14.16v-32.02c0-9.93-8.04-17.97-17.95-17.97h-1.09a19.05 19.05 0 0 0-18.85 21.62l3.76 27.7a17.17 17.17 0 0 0 17 14.83Z" fill="#fff"/><path fill-rule="evenodd" clip-rule="evenodd" d="M151.67 340.87a19.45 19.45 0 0 1 19.25-22.07h1.1a18.36 18.36 0 0 1 18.34 18.37v32.02c0 8.04-6.52 14.56-14.55 14.56h-2.98c-8.78 0-16.2-6.49-17.4-15.18l-3.76-27.7Zm.8-.1 3.75 27.69a16.77 16.77 0 0 0 16.6 14.5h2.99c7.59 0 13.75-6.17 13.75-13.77v-32.02c0-9.7-7.86-17.57-17.55-17.57h-1.09a18.64 18.64 0 0 0-18.46 21.16Z" fill="#3FB1B5"/><path d="M185.5 379.49a14.11 14.11 0 0 1-9.7 3.86h-2.97a17.15 17.15 0 0 1-16.99-14.84l-3.76-27.7c-.06-.52-.13-1.05-.14-1.56a12.82 12.82 0 0 1 25.32 0l4.95 33.8a11.17 11.17 0 0 0 3.3 6.44Z" fill="#3FB1B5"/><path d="M175.77 334.97h-22.36c.16-.3.35-.6.54-.87h21.3c.19.28.36.56.52.87ZM177.44 340.48h-25.4c-.04-.29-.07-.57-.09-.86h25.36l.13.86ZM178.25 346.01h-25.47l-.12-.86h25.47l.13.86ZM179.06 351.54h-25.52l-.13-.88h25.52l.13.88ZM179.87 357.05H154.3l-.13-.86h25.58l.13.86ZM180.67 362.58h-25.64l-.12-.86h25.63l.13.86ZM181.49 368.11h-25.71l-.11-.88h25.69l.13.88ZM182.3 373.63h-24.94c-.14-.3-.27-.58-.38-.87h25.18l.05.29.1.57ZM185.17 379.15h-23.58c-.32-.27-.64-.57-.93-.86h23.77c.23.3.48.6.74.86Z" fill="#fff"/><path d="M206.01 116.98v26.98c-1.16-3.06-10.42-2.62-20.6 1.24-8.72 3.32-15.27 7.87-16.23 11.03v-37.99a31.3 31.3 0 0 1 15.3-26.9 26.03 26.03 0 0 1 21.53 25.64ZM168.47 92.55a31.27 31.27 0 0 0-13.41 25.7v31.32h-45.58l6.3-27.11a34.53 34.53 0 0 1 21.9-24.7l30.8-5.2Z" fill="#FFCF2D"/><path d="M260.65 226.66v62.9c0-4.27-12.57-7.74-27.42-7.74-14.86 0-26.9 3.47-26.9 7.75v-30.15a2.57 2.57 0 0 0-2.56-2.56h-81.7c-24.58 0-42.75-22.9-37.2-46.87l19.73-85.07a34.52 34.52 0 0 1 27.84-26.25l5.25-.9a34.53 34.53 0 0 0-21.92 24.7l-6.29 27.12h45.58v-31.35c0-10.51 5.23-20 13.41-25.69l7.2-1.22c1.5-.25 2.95-.37 4.41-.37h.56l.51.02h.1l.4.02h.06l.23.01.41.03.5.05.46.05.12.02c.16.01.33.05.5.06h.02l.53.08a31.3 31.3 0 0 0-15.3 26.91v77h60.1a31.44 31.44 0 0 1 31.37 31.45Z" fill="#FE5244"/><path fill-rule="evenodd" clip-rule="evenodd" d="M169.9 91.57c.16.22.1.52-.11.67-8.1 5.63-14.27 15.67-14.27 26v31.81h-46.66l6.43-27.7m54.62-30.78a.48.48 0 0 0-.67-.12l.67.12Zm-.67-.12c-8.3 5.78-14.68 16.1-14.68 26.8l14.68-26.8Zm-14.68 26.8v30.84-30.85Zm0 30.84h-44.49 44.5ZM215.54 225.01c.2.17.23.48.06.68a37.33 37.33 0 0 0-8.79 24.07.48.48 0 0 1-.96 0c0-9.04 3.2-17.8 9.02-24.7.17-.2.47-.22.67-.05Z" fill="#fff"/><path d="M139.75 246.57a.37.37 0 0 1-.22-.07l-2.11-1.15a.48.48 0 0 1-.2-.66.48.48 0 0 1 .66-.2l2.11 1.16c.25.13.32.42.2.66a.5.5 0 0 1-.44.26Zm2.12-.55a.46.46 0 0 1-.42-.26.48.48 0 0 1 .2-.65l2.1-1.16a.5.5 0 0 1 .66.2c.13.24.05.53-.19.65l-2.11 1.16a.68.68 0 0 1-.24.06Zm-6.34-1.75a.37.37 0 0 1-.23-.06l-2.1-1.15a.48.48 0 0 1-.2-.66.48.48 0 0 1 .66-.2l2.1 1.16c.25.13.33.42.2.66a.5.5 0 0 1-.43.25Zm10.55-.56a.46.46 0 0 1-.42-.25.48.48 0 0 1 .2-.66l2.1-1.15c.38-.2.71-.42 1.05-.66.2-.16.51-.11.67.1.16.2.11.5-.1.67-.37.27-.75.51-1.15.74l-2.11 1.15a.45.45 0 0 1-.24.06Zm-14.73-1.8c-.1 0-.2-.04-.29-.1a9.81 9.81 0 0 1-1.82-1.74.47.47 0 0 1 .06-.67c.2-.17.51-.14.67.07.48.59 1.04 1.1 1.65 1.55.21.16.26.47.11.67-.08.15-.22.21-.38.21Zm19.67-1.7a.45.45 0 0 1-.3-.1.47.47 0 0 1-.06-.68c.48-.59.88-1.23 1.2-1.94.1-.24.4-.35.64-.24.24.12.35.4.24.65a9.7 9.7 0 0 1-1.33 2.13.5.5 0 0 1-.39.19Zm-22.68-1.98a.47.47 0 0 1-.43-.27c-.35-.77-.61-1.57-.77-2.4a.49.49 0 0 1 .38-.56c.26-.05.52.12.56.38.15.75.37 1.47.7 2.16.1.24 0 .53-.25.64a.43.43 0 0 1-.19.05Zm24.67-2.34h-.08a.49.49 0 0 1-.39-.56c.1-.53.15-1.06.15-1.59v-.72c0-.27.2-.48.48-.48.27 0 .48.21.48.48v.72c0 .6-.05 1.19-.16 1.77a.5.5 0 0 1-.48.38Zm-25.55-2.34a.47.47 0 0 1-.48-.48v-2.4c0-.27.2-.48.48-.48.27 0 .48.2.48.48v2.4a.5.5 0 0 1-.48.48Zm25.7-2.45a.47.47 0 0 1-.49-.48v-2.4c0-.28.21-.48.48-.48.28 0 .48.2.48.47v2.4c0 .28-.2.49-.48.49Zm-25.7-2.36a.47.47 0 0 1-.48-.48v-2.4c0-.27.2-.48.48-.48.27 0 .48.2.48.48v2.4a.5.5 0 0 1-.48.48Zm25.7-2.45a.47.47 0 0 1-.49-.48v-2.4c0-.28.21-.48.48-.48.28 0 .48.2.48.48v2.4c0 .27-.2.48-.48.48Zm-25.7-2.35a.47.47 0 0 1-.48-.48v-2.4c0-.28.2-.49.48-.49.27 0 .48.2.48.48v2.4a.5.5 0 0 1-.48.49Zm25.7-2.46a.47.47 0 0 1-.49-.48v-2.4c0-.27.21-.48.48-.48.28 0 .48.2.48.48v2.4c0 .28-.2.48-.48.48Zm-25.7-2.35a.47.47 0 0 1-.48-.48v-2.07h1.3c.27 0 .48.2.48.48 0 .27-.21.48-.48.48h-.34v1.1a.5.5 0 0 1-.48.49Zm24.83-1.59h-2.4a.47.47 0 0 1-.48-.48c0-.27.2-.48.48-.48h2.4c.27 0 .48.2.48.48 0 .27-.2.48-.48.48Zm-4.8 0h-2.4a.47.47 0 0 1-.49-.48c0-.27.21-.48.49-.48h2.4c.27 0 .48.2.48.48 0 .27-.21.48-.48.48Zm-4.8 0h-2.4a.47.47 0 0 1-.49-.48c0-.27.21-.48.48-.48h2.4c.28 0 .48.2.48.48 0 .27-.2.48-.48.48Zm-4.8 0h-2.41a.47.47 0 0 1-.48-.48c0-.27.2-.48.48-.48h2.4c.27 0 .48.2.48.48 0 .27-.2.48-.48.48Zm-4.81 0h-2.4a.47.47 0 0 1-.48-.48c0-.27.2-.48.48-.48h2.4c.27 0 .48.2.48.48 0 .27-.2.48-.48.48ZM94.45 243.9a.46.46 0 0 1-.42-.25.48.48 0 0 1 .2-.66l1.95-1.07.14-.08a.49.49 0 0 1 .66.17.5.5 0 0 1-.18.66.5.5 0 0 1-.16.08l-1.95 1.07a.36.36 0 0 1-.24.09Zm4.05-2.56a.45.45 0 0 1-.35-.16.48.48 0 0 1 .03-.67c.56-.51 1.06-1.1 1.49-1.73a.48.48 0 0 1 .67-.13c.23.14.27.45.13.67a11.6 11.6 0 0 1-1.63 1.9.56.56 0 0 1-.34.12Zm2.67-3.94c-.06 0-.1-.02-.17-.03a.49.49 0 0 1-.27-.63c.27-.72.46-1.46.57-2.21a.49.49 0 0 1 .55-.42c.25.03.45.28.41.55-.11.83-.32 1.65-.62 2.43-.1.2-.27.3-.47.3Zm.7-4.71a.47.47 0 0 1-.49-.48v-2.4c0-.28.21-.49.48-.49s.48.2.48.48v2.4c0 .26-.2.49-.48.49Zm0-4.81a.47.47 0 0 1-.49-.48V225c0-.28.21-.49.48-.49s.48.21.48.48v2.4c0 .26-.2.49-.48.49Zm0-4.8a.47.47 0 0 1-.49-.49v-2.4c0-.28.21-.48.48-.48s.48.2.48.48v2.4c0 .26-.2.48-.48.48Zm0-4.82a.47.47 0 0 1-.49-.48v-.24h-1.2a.47.47 0 0 1-.48-.48c0-.27.2-.48.48-.48h2.16v1.2c0 .26-.2.48-.48.48Zm-4.09-.72h-2.4a.47.47 0 0 1-.48-.48c0-.27.2-.48.48-.48h2.4c.27 0 .48.2.48.48 0 .27-.22.48-.48.48Zm-4.8 0h-2.4a.47.47 0 0 1-.48-.48c0-.27.2-.48.48-.48h2.4c.27 0 .48.2.48.48 0 .27-.23.48-.48.48Zm-4.8 0h-2.4a.47.47 0 0 1-.49-.48c0-.27.21-.48.48-.48h2.4c.28 0 .49.2.49.48 0 .27-.23.48-.48.48Z" fill="#fff"/><path d="M206.01 143.97c1.17 3.06-6.22 8.49-16.39 12.35-10.16 3.87-19.27 4.46-20.44 1.38-1.17-3.08 6.05-8.62 16.23-12.48 10.18-3.87 19.43-4.33 20.6-1.25Z" fill="#FE5244"/><path d="M211.7 243.4v1.7a7.04 7.04 0 0 0-1.65-.2h-2.07a7.1 7.1 0 0 1-6.66-4.68l5.86-.79a3.99 3.99 0 0 1 4.51 3.96Z" fill="#73325A"/><path d="M217.1 251.97V265a5.5 5.5 0 0 1-5.5 5.51h-6.13a5.5 5.5 0 0 1-5.5-5.51h3.98a2.37 2.37 0 0 0 2.37-2.37v-3.41a2.36 2.36 0 0 0-2.37-2.38h-20.38c-7.96 0-14.4-6.45-14.4-14.42v-86.19c.95-3.16 7.5-7.72 16.22-11.03 5.96-2.25 11.61-3.34 15.5-3.25v95.87a7.08 7.08 0 0 0 7.08 7.08h2.06a7.04 7.04 0 0 1 7.08 7.06Z" fill="#A0505A"/><path d="M200.9 141.94v8.72a56.05 56.05 0 0 1-11.3 5.65c-10.18 3.86-19.27 4.45-20.44 1.37v-1.46c.96-3.15 7.51-7.72 16.23-11.02 5.98-2.26 11.61-3.35 15.5-3.25Z" fill="#73325A"/><path d="m174.27 77.02-6.02 15.53-31.03 5.56 8.1-21.09h28.95Z" fill="#A0505A"/><path d="m174.27 77.02-3.25 8.4-30.77 4.8 5.08-13.2h28.94Z" fill="#73325A"/><path d="M192.46 45.42c0 2.1-3.64 4.42-7.83 6.38a107.55 107.55 0 0 1-12.46 4.7l-4.54 8.58c6.18 3.29 8.6 9.19 9.55 13.3.61 2.63.61 4.5.61 4.5h-43.57s-11.45-37.1 16.13-45.99c16.88-5.43 42.1 3.54 42.1 8.53Z" fill="#fff"/><path fill-rule="evenodd" clip-rule="evenodd" d="M177.61 37.71c-8.37-2.17-18.8-3.04-27.11-.36-6.78 2.18-11.15 6.1-13.9 10.72-2.75 4.64-3.89 10.03-4.18 15.18-.3 5.14.27 10.02.91 13.61a62.96 62.96 0 0 0 1.22 5.48l.02.07h42.72c0-.2-.03-.45-.05-.74a24.4 24.4 0 0 0-.53-3.18c-.94-4.06-3.3-9.8-9.31-12.98l-.42-.23 4.86-9.17.2-.06.04.15-.05-.15h.02l.06-.03a86.37 86.37 0 0 0 3.99-1.32c2.39-.84 5.49-2.01 8.32-3.34 2.09-.97 4.01-2.02 5.4-3.08a8.23 8.23 0 0 0 1.62-1.54c.37-.5.53-.94.53-1.32 0-.43-.28-1-.97-1.68a14 14 0 0 0-2.98-2.1 46.27 46.27 0 0 0-10.41-3.93Zm.18 45.18h.48v.48h-44.4l-.11-.34.46-.14-.46.14-.01-.03-.03-.08-.09-.32-.32-1.2c-.26-1.05-.6-2.55-.93-4.37a61.06 61.06 0 0 1-.92-13.84c.3-5.24 1.46-10.8 4.32-15.61 2.87-4.83 7.42-8.89 14.43-11.15 8.55-2.75 19.18-1.85 27.64.35a47.17 47.17 0 0 1 10.63 4.02c1.34.74 2.43 1.5 3.2 2.25.75.74 1.25 1.55 1.25 2.37 0 .66-.28 1.3-.72 1.9a9.17 9.17 0 0 1-1.8 1.72 31.74 31.74 0 0 1-5.58 3.2c-2.88 1.34-6 2.52-8.42 3.37a123.06 123.06 0 0 1-3.8 1.26l-.1.04-4.24 7.98c6.05 3.42 8.43 9.3 9.38 13.38a25.33 25.33 0 0 1 .62 4.52V82.88h-.48Z" fill="#FFCF2D"/><path d="M146.32 42.18a10.84 10.84 0 1 0-.01-21.69 10.84 10.84 0 0 0 0 21.69Z" fill="#fff"/><path fill-rule="evenodd" clip-rule="evenodd" d="M146.32 20.96a10.36 10.36 0 1 0 0 20.73 10.36 10.36 0 0 0 0-20.73ZM135 31.33a11.32 11.32 0 1 1 22.65-.01 11.32 11.32 0 0 1-22.65.01Z" fill="#FFCF2D"/><path d="M177.17 78.38c-.9-3.9-3.14-9.44-8.66-12.79h-1.43a4.76 4.76 0 0 1-4.77-4.77 4.76 4.76 0 0 1 4.77-4.78l6.04.13h.16c.1-.03.22-.08.35-.11 1.63-.35 6.8-1.6 11.1-3.75l.49 2.96 1.6 9.5a11.85 11.85 0 0 1-9.65 13.61Z" fill="#A0505A"/><path d="M185.2 55.26c-5.25 2.13-12.1.9-12.1.9s6.45-1.29 11.6-3.87l.5 2.97Z" fill="#73325A"/><path fill-rule="evenodd" clip-rule="evenodd" d="M167.1 58.43c0-.22.18-.4.4-.4a3.7 3.7 0 0 1 3.7 3.7.4.4 0 1 1-.8 0c0-1.6-1.3-2.9-2.9-2.9a.4.4 0 0 1-.4-.4Z" fill="#73325A"/><path fill-rule="evenodd" clip-rule="evenodd" d="m205.86 419.92-18.59-154.85.96-.11L206.8 419.8l-.95.11ZM88.13 419.8l18.57-154.84.95.11-18.57 154.85-.95-.12Z" fill="#66B0F0"/><path fill-rule="evenodd" clip-rule="evenodd" d="M199.95 367.17H94.98v-.97h104.97v.97Z" fill="#66B0F0"/><path d="M91.03 265.01H203.9a2.43 2.43 0 0 0 2.44-2.43v-3.3a2.43 2.43 0 0 0-2.44-2.44H91.03a2.43 2.43 0 0 0-2.44 2.44v3.3a2.45 2.45 0 0 0 2.44 2.43Z" fill="#fff"/><path fill-rule="evenodd" clip-rule="evenodd" d="M88.11 259.28c0-1.62 1.3-2.92 2.91-2.92H203.9c1.61 0 2.91 1.3 2.91 2.92v3.3c0 1.6-1.3 2.91-2.9 2.91H91.01c-1.6 0-2.89-1.3-2.9-2.9V259.27Zm2.91-1.96c-1.08 0-1.95.88-1.95 1.96v3.3c.02 1.08.9 1.95 1.95 1.95H203.9c1.08 0 1.95-.87 1.95-1.95v-3.3c0-1.08-.87-1.96-1.95-1.96H91.02Z" fill="#FFCF2D"/></svg>